<svg width="100%" height="100%" id="svg" viewBox="0 0 1440 590" xmlns="http://www.w3.org/2000/svg" class="transition duration-300 ease-in-out delay-150"><defs><linearGradient id="gradient" x1="0%" y1="50%" x2="100%" y2="50%"><stop offset="5%" stop-color="#ff6900"></stop><stop offset="95%" stop-color="#fcb900"></stop></linearGradient></defs><path d="M 0,600 C 0,600 0,200 0,200 C 90.03571428571428,200.64285714285714 180.07142857142856,201.28571428571428 300,211 C 419.92857142857144,220.71428571428572 569.7499999999999,239.49999999999997 702,236 C 834.2500000000001,232.50000000000003 948.9285714285713,206.71428571428572 1069,197 C 1189.0714285714287,187.28571428571428 1314.5357142857142,193.64285714285714 1440,200 C 1440,200 1440,600 1440,600 Z" stroke="none" stroke-width="0" fill="url(#gradient)" fill-opacity="0.53" class="transition-all duration-300 ease-in-out delay-150 path-0"></path><defs><linearGradient id="gradient" x1="0%" y1="50%" x2="100%" y2="50%"><stop offset="5%" stop-color="#ff6900"></stop><stop offset="95%" stop-color="#fcb900"></stop></linearGradient></defs><path d="M 0,600 C 0,600 0,400 0,400 C 143.53571428571428,432.82142857142856 287.07142857142856,465.64285714285717 407,464 C 526.9285714285714,462.35714285714283 623.25,426.24999999999994 716,392 C 808.75,357.75000000000006 897.9285714285716,325.3571428571429 1018,327 C 1138.0714285714284,328.6428571428571 1289.0357142857142,364.32142857142856 1440,400 C 1440,400 1440,600 1440,600 Z" stroke="none" stroke-width="0" fill="url(#gradient)" fill-opacity="1" class="transition-all duration-300 ease-in-out delay-150 path-1"></path></svg>